<svg width="127" height="40" viewBox="0 0 127 40" fill="none" xmlns="http://www.w3.org/2000/svg">
<g clip-path="url(#clip0_1401_652)">
<path d="M39.3769 22.9899V28.7728C39.3769 29.2851 38.9708 29.7004 38.4678 29.7004H36.4924C35.9894 29.7004 35.5832 29.2851 35.5832 28.7728V22.9899H32.1865V29.0635C32.1865 31.5465 33.7464 32.8526 36.054 32.8526H39.3769V32.8342C41.4999 32.8342 42.7737 31.2973 42.7737 29.0635V22.9899H39.3769Z" fill="#1CE682"/>
<path d="M26.1913 32.8526H29.6112V18.5501H26.1913V32.8526Z" fill="#1CE682"/>
<path d="M20.2331 22.9899V28.7728C20.2331 29.2851 19.8269 29.7004 19.3239 29.7004H17.3486C16.8455 29.7004 16.4394 29.2851 16.4394 28.7728V22.9899H13.0426V29.0635C13.0426 31.5465 14.6025 32.8526 16.9101 32.8526H20.2331V32.8342C22.3561 32.8342 23.6299 31.2973 23.6299 29.0635V22.9899H20.2331Z" fill="#1CE682"/>
<path d="M6.71974 23.013H4.54136C3.77985 23.013 3.39218 23.2207 3.39218 23.2207V18.5455H0V32.848H3.39679V27.0744C3.39679 26.5621 3.80293 26.1513 4.30599 26.1513H6.2813C6.78435 26.1513 7.19049 26.5667 7.19049 27.0744V32.848H10.5873V26.6267C10.5873 24.0099 8.87043 23.0038 6.71974 23.0038" fill="#1CE682"/>
<path d="M64.5206 15.624C62.3007 14.9963 58.7516 14.161 54.8656 15.1948C54.1456 15.3886 53.6518 15.7071 53.3103 16.3117C53.1395 16.6117 52.9826 16.9393 53.0657 17.2716C53.1395 17.5532 53.5456 17.6547 53.8687 17.7055C54.1825 17.7562 54.8887 17.7932 55.0779 17.5624C55.1794 17.4424 55.1794 17.1101 54.6625 16.9993C54.4733 16.9578 53.9518 16.9393 53.9102 16.8517C53.9102 16.8517 53.9287 16.7917 54.2148 16.704C54.3395 16.6671 55.2671 16.284 57.7962 16.3671C60.8054 16.464 63.436 17.1701 66.2144 18.2639C68.9327 19.3346 71.9926 21.273 73.7833 23.576C74.4618 24.4483 75.3017 25.8836 75.4125 27.0882C75.6802 30.0188 72.8187 32.4926 67.0036 32.2941C66.0113 32.2618 64.8021 32.0265 64.8021 32.0265L64.6821 26.3682C64.6821 26.3682 67.142 26.3498 69.8604 27.2451C70.0912 27.3189 70.3265 27.4713 70.345 27.6974C70.3588 27.8682 70.225 28.0205 70.0727 28.1543C69.7912 28.3989 69.4035 28.5097 69.3158 28.6112C69.2558 28.6851 69.2558 28.8004 69.3343 28.865C69.5373 29.022 70.0404 29.1327 70.3773 29.1004C71.065 29.0404 71.5173 28.6435 71.8634 28.122C72.2326 27.5682 72.4403 26.1605 70.4881 25.2652C67.9635 24.1068 64.6637 24.3237 64.6637 24.3237C64.6637 24.3237 64.6452 23.5576 64.6129 23.0453C64.5575 22.2053 64.3221 20.5623 63.5606 20.0869C63.4222 19.9992 63.2514 19.99 63.1545 20.1192C63.0068 20.3131 62.8591 21.0515 62.8268 21.2407C62.5407 22.953 62.5545 24.4898 62.5407 24.5129C62.5314 24.5221 62.5222 24.5314 62.513 24.5406C62.4807 24.5591 60.6577 24.776 58.8947 25.5421C58.1932 25.8467 57.187 26.3959 56.8824 27.102C56.4901 28.0158 57.1824 29.0127 58.3501 30.1204C59.3377 31.0573 60.7961 32.0449 61.8761 32.5526C62.153 32.6818 62.4761 32.8434 62.4761 32.8434C62.4761 32.8434 62.5453 33.4987 62.6007 33.8772C62.8037 35.2386 63.8422 35.0402 64.1283 34.9802C64.5944 34.8833 64.6821 34.5741 64.7467 34.2187C64.7837 34.0248 64.7652 33.7387 64.7652 33.7387C64.7652 33.7387 65.4667 33.9002 65.9421 33.9879C67.3174 34.2418 68.8081 34.2833 70.1004 34.1079C75.2694 33.4018 76.5755 30.965 76.9863 30.3142C77.7016 29.1835 79.22 26.0313 74.6464 21.3561C73.6033 20.2854 70.5804 17.3455 64.516 15.6286L64.5206 15.624ZM57.6901 28.3712C57.5009 28.1774 57.3578 27.9697 57.3993 27.7159C57.4409 27.4713 57.9209 27.2543 58.1608 27.1851C60.4915 26.4974 62.4714 26.4605 62.4714 26.4605C62.4714 26.4605 62.453 27.2959 62.4484 28.1451C62.4391 29.7465 62.4853 31.3757 62.4853 31.3757C62.4853 31.3757 59.8546 30.6096 57.6901 28.3712Z" fill="black"/>
<path d="M81.3846 22.4822C82.4784 22.053 83.323 21.4392 84.1768 20.5623C84.6752 20.0546 85.1137 19.2193 84.9521 18.4578C84.8737 18.0793 84.6983 17.8209 84.3845 17.5486C84.2275 17.4147 83.8676 17.2209 83.5722 17.1655C83.4891 17.147 83.3968 17.1424 83.3599 17.1193C83.3183 17.0917 83.286 17.0363 83.2445 16.9855C83.0507 16.7409 82.6722 16.5101 82.3999 16.4178C81.5599 16.1271 80.4431 16.3486 79.6769 16.6671C78.8693 17.0086 78.1262 17.5116 77.5586 18.1162C76.0725 19.7085 76.7278 20.9684 76.8571 21.2038C76.9678 21.4023 77.1801 21.6192 77.2217 21.8269C77.2493 21.9515 77.2217 22.113 77.2309 22.2607C77.2401 22.5976 77.3878 22.9391 77.637 23.1653C77.817 23.3222 78.0755 23.3729 78.3385 22.976C78.4262 22.8422 78.5693 22.5745 78.5693 22.5745C78.5693 22.5745 78.8739 22.7499 79.6031 22.8007C80.1477 22.8376 80.8954 22.6761 81.3753 22.4868L81.3846 22.4822ZM77.8816 20.5577C77.8816 20.5577 77.8309 20.4515 77.7986 20.3731C77.5724 19.8146 78.0708 19.1823 78.5231 18.7947C79.4046 18.0424 80.1569 18.0608 80.1569 18.0608C80.1569 18.0608 79.9769 18.2039 79.8292 18.3378C78.5416 19.4639 77.8816 20.5623 77.8816 20.5623V20.5577ZM79.8154 20.5392C80.3554 19.8423 81.3569 18.9793 82.0538 18.5639C82.5984 18.2362 83.0691 18.1485 83.4245 18.3054C83.6322 18.3978 83.8029 18.587 83.8306 18.8408C83.9229 19.6254 83.0184 20.2808 82.4138 20.6361C81.0384 21.4392 79.4093 21.2592 79.3677 21.1853C79.3631 21.1669 79.6954 20.71 79.82 20.5438L79.8154 20.5392Z" fill="black"/>
<path d="M112.593 24.8037C110.839 23.5852 108.014 27.4436 106.768 29.3542C106.584 28.3804 107.244 27.1482 107.244 27.1482C107.244 27.1482 108.3 25.3206 108.448 24.9467C108.591 24.5729 108.674 23.8068 108.494 23.7283C108.328 23.6545 108.047 23.8991 108.047 23.8991C105.674 26.0267 105.342 28.3897 105.342 28.3897C105.116 29.6635 105.379 30.5542 105.767 31.1773C104.447 33.9879 103.805 36.434 103.976 37.8831C104.138 38.9862 104.927 39.7846 105.407 39.9508C105.891 40.1538 105.979 39.5723 105.979 39.5723C106.371 36.577 107.054 34.574 107.871 32.5941C110.345 33.1618 112.205 30.7573 112.86 29.6081C113.248 28.9158 113.456 27.9974 113.456 27.1297C113.456 26.1421 113.183 25.2283 112.597 24.8037H112.593ZM110.982 29.5804C110.7 29.8481 109.759 30.3788 108.785 30.4896C109.713 28.6897 110.867 27.3651 111.503 26.659C112.246 25.8236 112.343 26.5805 112.343 26.5805C112.519 28.0574 111.443 29.1696 110.977 29.5804H110.982Z" fill="black"/>
<path d="M104.474 31.0019C104.594 30.5496 104.184 30.0604 103.814 29.9681C103.468 29.8988 100.815 30.3927 100.501 30.4804C100.159 30.5727 100.312 30.2496 100.312 30.2496L100.722 28.865C100.722 28.865 103.256 28.7681 103.621 28.7081C103.962 28.6481 103.981 28.4081 103.981 28.4081C103.981 28.4081 104.027 28.0112 104.013 27.642C103.976 27.2451 103.658 27.282 103.658 27.282C102.679 27.1805 101.331 27.2959 101.331 27.2959L101.673 26.2298C101.673 26.2298 104.368 26.1005 105.388 25.8605C105.914 25.7359 105.605 25.219 105.605 25.219C104.968 23.9406 104.23 24.0145 104.23 24.0145C102.111 23.9452 99.0331 24.5037 98.6962 24.6698C98.3824 24.8129 98.4147 25.0483 98.8254 25.5652C99.2639 26.1098 100.002 26.059 100.002 26.059L99.3516 27.402C98.8208 27.4389 98.6408 27.6051 98.6408 27.6051C98.3362 27.9328 98.7562 28.8927 98.7562 28.8927C98.7562 28.8927 97.8378 30.9557 98.5024 32.0449C99.2177 33.1895 100.067 33.1341 100.067 33.1341C101.678 33.2495 104.327 31.5649 104.47 31.0065L104.474 31.0019Z" fill="black"/>
<path d="M95.2163 22.8053C95.2163 22.8053 94.8425 22.6299 94.7456 23.0037C94.6487 23.3729 94.7917 23.7698 94.7917 23.7698C95.724 26.9359 95.9363 28.8096 95.9363 28.8096C95.9363 28.8096 95.9778 29.3589 95.8717 29.3912C95.7979 29.4465 95.7148 29.3681 95.7148 29.3681C95.6086 29.3681 94.5841 27.6558 94.5841 27.6558L94.3856 27.3189C93.2595 25.5005 92.5764 24.8821 92.5764 24.8821C92.4149 24.7344 92.0088 24.319 91.4965 24.8867C90.9842 25.459 90.5873 27.2912 90.4258 29.0127C90.2873 30.7342 90.3934 31.7126 90.6427 32.1234C90.9196 32.5433 91.4503 32.6818 91.8888 32.3264C92.3549 31.9711 92.2672 29.7004 92.3411 28.5373C92.4103 27.3697 92.5257 27.5774 92.5257 27.5774C92.6272 27.5497 93.158 28.6204 93.158 28.6204C93.158 28.6204 94.5564 31.4865 95.4379 31.9111C96.3286 32.3357 97.044 31.6526 97.3163 31.0157C97.5932 30.3742 98.0593 28.2466 97.3624 25.8882C96.6609 23.5298 95.2117 22.8053 95.2117 22.8053H95.2163Z" fill="black"/>
<path d="M80.6646 28.8743C80.6277 28.0897 80.5354 26.0867 80.3185 25.1821C80.2215 24.7944 80.0646 24.4391 79.6815 24.2914C79.6354 24.2729 79.5846 24.2591 79.5523 24.2545C79.3123 24.2083 79.1739 24.536 79.1093 24.7021C78.92 25.1867 78.7816 26.3498 78.7447 26.7098C78.6339 27.8082 78.5416 30.4065 78.7308 31.7311C78.8093 32.2849 78.9939 32.6449 79.5523 32.7649C79.7785 32.8111 80.1938 32.8018 80.3785 32.6865C80.5354 32.5895 80.6507 32.3957 80.6877 32.2295C80.7892 31.768 80.7523 31.1127 80.7292 30.6188C80.7061 30.0373 80.6877 29.4604 80.6646 28.8697V28.8743Z" fill="black"/>
<path d="M89.7242 24.4944C88.5151 23.8529 86.5213 23.8483 85.289 24.0052C84.0152 24.1622 82.3122 24.5591 81.583 25.6067C81.3061 26.0082 81.1446 26.6174 81.2692 27.1205C81.343 27.3974 81.5415 27.6097 81.8322 27.762C82.3491 28.0297 84.0706 28.0897 84.8367 28.1728C85.5613 28.2512 86.8905 28.3805 87.6243 28.6851C87.6243 28.6851 88.3212 28.925 88.3166 29.322C88.3166 29.5158 88.1689 29.6727 88.0212 29.7789C86.932 30.5496 85.4367 30.7711 84.1029 30.7481C83.6506 30.7434 83.2814 30.6696 82.8199 30.4758C82.6261 30.3881 82.3722 30.2358 82.4045 29.9681C82.4599 29.5435 82.9445 29.4373 83.3322 29.4743C83.5491 29.4927 83.8306 29.585 84.0429 29.6681C84.8967 30.005 85.2844 30.2911 86.0367 30.1758C86.3182 30.1342 87.2874 29.9219 87.4213 29.5204C87.4536 29.4235 87.4074 29.3173 87.3336 29.2435C87.232 29.1373 86.6459 28.9112 86.489 28.8558C85.9167 28.6527 84.8321 28.4681 84.2275 28.4451C83.4383 28.4174 82.3491 28.5789 81.8968 29.2343C81.4907 29.825 81.3984 31.0157 83.4153 32.0172C84.3521 32.4834 85.4875 32.6911 86.5351 32.5757C87.1351 32.5064 88.8566 32.2388 89.5119 30.868C89.8627 30.1296 89.8304 29.1466 89.4519 28.4451C89.2027 27.9835 88.9027 27.3697 86.6505 27.0882C86.2905 27.042 83.6414 26.7374 83.4014 26.7005C83.2676 26.6774 82.6445 26.6036 82.866 26.3682C82.926 26.299 83.1153 26.2482 83.226 26.2205C84.6152 25.8421 86.3782 25.8836 87.8412 25.8006C88.1689 25.7821 88.9073 25.7359 89.2673 25.6206C89.6089 25.5144 89.8904 25.2744 89.9688 24.896C90.0104 24.6975 89.9135 24.6006 89.7242 24.5037V24.4944Z" fill="black"/>
<path d="M125.829 26.2067H121.671C121.625 24.7714 121.481 23.3499 121.237 21.9561C121.195 21.7161 120.988 21.5407 120.743 21.5407H119.622C119.405 21.5407 119.238 21.7392 119.275 21.9561C119.538 23.3499 119.691 24.7667 119.742 26.2067H115.514C115.32 26.2067 115.163 26.3636 115.163 26.5574V27.8312C115.163 28.0251 115.32 28.182 115.514 28.182H119.742C119.691 29.6219 119.538 31.0388 119.275 32.4326C119.234 32.6495 119.4 32.848 119.622 32.848H120.743C120.988 32.848 121.195 32.6726 121.237 32.4326C121.481 31.0388 121.625 29.6173 121.671 28.1774H125.829C126.023 28.1774 126.18 28.0205 126.18 27.8266V26.5528C126.18 26.359 126.023 26.2021 125.829 26.2021V26.2067Z" fill="black"/>
<path d="M68.5589 10.7734C68.7251 10.8888 68.9558 10.8011 69.122 10.6257C70.5481 9.08888 72.108 7.75047 73.8849 6.53667C85.5475 -1.42917 102.67 -0.270757 112.685 9.8227C115.976 13.1226 117.785 16.6624 118.735 19.4454C118.805 19.6485 118.994 19.7869 119.211 19.7869H120.36C120.6 19.7869 120.771 19.5516 120.692 19.3254C119.446 15.6332 117.032 11.5811 113.525 8.28584C103.011 -1.6184 85.9767 -2.72143 74.1064 5.37826C72.1634 6.68898 70.2342 8.36891 68.5404 10.2888C68.3743 10.4781 68.4297 10.6857 68.5589 10.7734Z" fill="black"/>
</g>
<defs>
<clipPath id="clip0_1401_652">
<rect width="127" height="40" fill="white" transform="translate(0 -0.00305176)"/>
</clipPath>
</defs>
</svg>
