<svg width="16" height="16" viewBox="0 0 16 16" fill="none" xmlns="http://www.w3.org/2000/svg">
<path fill-rule="evenodd" clip-rule="evenodd" d="M1.37123 0.117988C1.60188 -0.0274671 1.88944 -0.0391934 2.13055 0.0870234L14.575 6.60131C14.8238 6.73152 14.9856 6.98886 14.9991 7.27562C15.0126 7.56237 14.8756 7.83458 14.6403 7.98889L7.01806 12.9862C6.77859 13.1432 6.47497 13.1535 6.22598 13.013C5.97699 12.8725 5.82222 12.6037 5.82222 12.3116V8.8C5.82222 8.35817 6.17044 8 6.6 8C7.02955 8 7.37778 8.35817 7.37778 8.8V10.853L12.6563 7.39223L2.55556 2.10479V13.8013L4.02787 12.9105C4.39812 12.6864 4.87482 12.8136 5.09261 13.1944C5.31041 13.5752 5.18682 14.0655 4.81657 14.2895L2.17213 15.8895C1.93164 16.035 1.63382 16.0369 1.39163 15.8944C1.14944 15.752 1 15.487 1 15.2V0.800001C1 0.521725 1.14059 0.263442 1.37123 0.117988Z" fill="#0AADCC"/>
<path d="M7.37778 6.08C7.37778 6.52183 7.02955 6.88 6.6 6.88C6.17044 6.88 5.82222 6.52183 5.82222 6.08C5.82222 5.63817 6.17044 5.28 6.6 5.28C7.02955 5.28 7.37778 5.63817 7.37778 6.08Z" fill="#0AADCC"/>
</svg>
