<svg width="203" height="40" viewBox="0 0 203 40" fill="none" xmlns="http://www.w3.org/2000/svg">
<g clip-path="url(#clip0_421_17284)">
<path d="M39.376 22.9941V28.777C39.376 29.2893 38.9699 29.7047 38.4668 29.7047H36.4915C35.9885 29.7047 35.5823 29.2893 35.5823 28.777V22.9941H32.1855V29.0678C32.1855 31.5507 33.7455 32.8568 36.0531 32.8568H39.376V32.8384C41.499 32.8384 42.7728 31.3015 42.7728 29.0678V22.9941H39.376Z" fill="#1CE682"/>
<path d="M26.1914 32.8553H29.6113V18.5527H26.1914V32.8553Z" fill="#1CE682"/>
<path d="M20.2335 22.9941V28.777C20.2335 29.2893 19.8273 29.7047 19.3243 29.7047H17.349C16.8459 29.7047 16.4398 29.2893 16.4398 28.777V22.9941H13.043V29.0678C13.043 31.5507 14.6029 32.8568 16.9105 32.8568H20.2335V32.8384C22.3565 32.8384 23.6303 31.3015 23.6303 29.0678V22.9941H20.2335Z" fill="#1CE682"/>
<path d="M6.71974 23.0163H4.54136C3.77985 23.0163 3.39218 23.224 3.39218 23.224V18.5488H0V32.8514H3.39679V27.0777C3.39679 26.5654 3.80293 26.1547 4.30599 26.1547H6.2813C6.78435 26.1547 7.19049 26.5701 7.19049 27.0777V32.8514H10.5873V26.6301C10.5873 24.0132 8.87043 23.0071 6.71974 23.0071" fill="#1CE682"/>
<path fill-rule="evenodd" clip-rule="evenodd" d="M175.824 25.0393C175.824 25.0393 175.767 25.5498 175.682 26.1171C175.501 27.3591 174.35 28.2239 173.103 28.0553H167.556L166.93 33H162.512L163.498 25.0393H175.824ZM149.758 25.0393H159.468C160.852 25.0393 162.616 25.6349 162.265 28.1309C162.172 29.1547 161.997 30.1695 161.743 31.1658C161.004 32.9244 158.804 32.9811 158.491 33H148.715L149.151 29.5491H157.752L157.941 28.0553H151.958C150.46 28.0553 149.398 27.1193 149.72 25.0393H149.758ZM148.867 25.0393L148.488 28.0553H141.082L140.893 29.5491H148.298L147.852 33H136L137.015 25.0393H148.867ZM176.725 25.0393H181.144L180.138 33H175.71L176.725 25.0393ZM185.116 25.0393H189.535L188.53 33H184.073L185.079 25.0393H185.116ZM137.707 20H149.531L149.066 23.6495H137.185L137.65 20H137.707ZM173.169 20C175.635 20 176.298 21.4087 176.099 22.9687C176.099 23.2429 176.023 23.5644 176.014 23.64H149.901C149.901 23.64 149.967 23.1389 150.033 22.5716C150.213 21.0778 151.456 20.0662 153.342 20H173.112H173.169ZM187.013 20C188.539 20 190.123 20.6996 189.81 23.0916C189.753 23.5171 189.744 23.6495 189.744 23.6495H176.858L177.322 20H187.013Z" fill="black"/>
<path fill-rule="evenodd" clip-rule="evenodd" d="M199.717 24.8601L200.135 21.6172H196.617L196.209 24.8601H192.89L192.492 28.0841H195.792L195.394 31.3459H198.902L199.329 28.0463H202.638L203.046 24.8223L199.717 24.8601Z" fill="#F9B300"/>
<path d="M64.5371 15.6267C62.3141 14.9983 58.7591 14.1624 54.8683 15.1987C54.1455 15.3911 53.6546 15.7096 53.3106 16.3139C53.1391 16.6157 52.9812 16.9423 53.0672 17.2753C53.1416 17.5581 53.5465 17.6576 53.8714 17.7093C54.1842 17.7585 54.8929 17.7957 55.084 17.5681C55.1836 17.4491 55.1861 17.1145 54.6671 17.0055C54.4754 16.9654 53.9539 16.9473 53.9141 16.8594C53.9141 16.8594 53.9323 16.7986 54.2184 16.7102C54.3447 16.671 55.2721 16.2897 57.806 16.3716C60.8193 16.4686 63.4512 17.1733 66.2346 18.2679C68.9581 19.3388 72.0186 21.2757 73.8137 23.5819C74.4927 24.4544 75.3357 25.888 75.4468 27.0951C75.7159 30.0266 72.849 32.5005 67.0283 32.3021C66.0334 32.268 64.8243 32.0324 64.8243 32.0324L64.7036 26.3728C64.7036 26.3728 67.1666 26.3542 69.8896 27.2493C70.1215 27.3257 70.3543 27.4769 70.3755 27.7014C70.3906 27.8742 70.2543 28.0224 70.1009 28.156C69.8187 28.4021 69.4304 28.5091 69.3449 28.6136C69.283 28.689 69.2825 28.804 69.363 28.8673C69.5677 29.0255 70.0702 29.133 70.4092 29.1034C71.0957 29.0426 71.5524 28.6463 71.8974 28.1269C72.2651 27.5733 72.4743 26.1658 70.5183 25.2682C67.9899 24.1073 64.6855 24.3258 64.6855 24.3258C64.6855 24.3258 64.6684 23.5583 64.6342 23.0474C64.5774 22.2096 64.345 20.5625 63.5805 20.0878C63.4407 20.0019 63.2692 19.9918 63.1726 20.1219C63.0242 20.3153 62.8784 21.0522 62.8462 21.2436C62.5585 22.957 62.5736 24.4936 62.5585 24.5152C62.5499 24.5252 62.5409 24.5338 62.5288 24.5428C62.4986 24.5619 60.6714 24.7799 58.9075 25.5429C58.2034 25.8473 57.1965 26.3969 56.8912 27.1041C56.4973 28.0168 57.1899 29.016 58.3593 30.1221C59.3496 31.0589 60.8097 32.0449 61.8916 32.5553C62.1672 32.6854 62.4911 32.8456 62.4911 32.8456C62.4911 32.8456 62.561 33.4996 62.6173 33.8774C62.8205 35.2392 63.8602 35.0408 64.1468 34.9825C64.6126 34.8875 64.7021 34.5781 64.7665 34.2195C64.8017 34.0236 64.7871 33.7403 64.7871 33.7403C64.7871 33.7403 65.4912 33.9025 65.964 33.9884C67.3391 34.2421 68.8329 34.2858 70.1275 34.1095C75.3055 33.4027 76.6101 30.9665 77.0226 30.316C77.7393 29.1847 79.2597 26.0332 74.6798 21.3551C73.6336 20.2862 70.6093 17.3426 64.5361 15.6262L64.5371 15.6267ZM57.6994 28.3765C57.5113 28.1826 57.3665 27.9726 57.4107 27.719C57.453 27.4743 57.9328 27.2583 58.1752 27.187C60.5109 26.4993 62.4906 26.4642 62.4906 26.4642C62.4906 26.4642 62.472 27.301 62.468 28.1475C62.4604 29.7508 62.5027 31.3784 62.5027 31.3784C62.5027 31.3784 59.8682 30.6118 57.6994 28.376V28.3765Z" fill="black"/>
<path d="M81.423 22.4858C82.5179 22.0574 83.3634 21.4425 84.2194 20.5675C84.7193 20.0596 85.1579 19.2243 84.997 18.4633C84.9165 18.085 84.7435 17.8243 84.4271 17.5521C84.2697 17.4169 83.9091 17.2261 83.6159 17.1678C83.5309 17.1507 83.4403 17.1442 83.4036 17.1206C83.3619 17.094 83.3287 17.0392 83.2879 16.9885C83.0963 16.7453 82.7156 16.5128 82.442 16.4188C81.602 16.1285 80.4814 16.3475 79.7164 16.6695C78.9077 17.0116 78.1618 17.5129 77.5949 18.1197C76.1077 19.712 76.761 20.9734 76.8933 21.2084C77.006 21.4074 77.2147 21.6218 77.2605 21.8298C77.2881 21.9534 77.2635 22.1151 77.2685 22.2613C77.2791 22.5963 77.4249 22.9419 77.6769 23.1645C77.8575 23.3232 78.117 23.3704 78.378 22.9751C78.4656 22.8425 78.6114 22.5727 78.6114 22.5727C78.6114 22.5727 78.9147 22.748 79.6475 22.7993C80.1937 22.8375 80.9421 22.6732 81.423 22.4858ZM77.9143 20.5615C77.9143 20.5615 77.8635 20.4555 77.8308 20.3756C77.6055 19.816 78.1029 19.1851 78.5571 18.7983C79.4413 18.0458 80.1937 18.0639 80.1937 18.0639C80.1937 18.0639 80.0137 18.2081 79.8643 18.3387C78.5737 19.4664 77.9143 20.5615 77.9143 20.5615ZM79.8497 20.5409C80.3904 19.8446 81.3913 18.9807 82.0894 18.5647C82.6361 18.2387 83.1084 18.1493 83.4609 18.304C83.6702 18.396 83.8377 18.5853 83.8663 18.839C83.9599 19.6241 83.0525 20.2802 82.446 20.6338C81.0674 21.437 79.4368 21.2552 79.395 21.1823C79.389 21.1632 79.725 20.7051 79.8502 20.5409H79.8497Z" fill="black"/>
<path d="M112.673 24.8075C110.918 23.5914 108.087 27.4477 106.842 29.36C106.656 28.3866 107.316 27.1514 107.316 27.1514C107.316 27.1514 108.373 25.3229 108.523 24.9517C108.667 24.578 108.751 23.8099 108.57 23.7336C108.405 23.6577 108.12 23.9039 108.12 23.9039C105.746 26.0322 105.414 28.3936 105.414 28.3936C105.189 29.665 105.451 30.5581 105.837 31.183C104.517 33.9914 103.871 36.4412 104.043 37.8894C104.203 38.992 104.994 39.7892 105.474 39.9574C105.959 40.1594 106.045 39.5772 106.045 39.5772C106.438 36.5814 107.124 34.5786 107.941 32.599C110.416 33.1671 112.278 30.7605 112.938 29.6107C113.326 28.9205 113.534 27.9988 113.534 27.1318C113.534 26.1442 113.262 25.228 112.673 24.807V24.8075ZM111.06 29.5831C110.776 29.8523 109.836 30.3808 108.86 30.4903C109.79 28.691 110.944 27.3669 111.584 26.6606C112.328 25.8232 112.426 26.5837 112.426 26.5837C112.599 28.0616 111.523 29.1737 111.06 29.5836L111.06 29.5831Z" fill="black"/>
<path d="M104.542 31.0076C104.66 30.5576 104.25 30.0643 103.88 29.9724C103.534 29.901 100.877 30.3983 100.56 30.4837C100.219 30.5751 100.371 30.2547 100.371 30.2547L100.781 28.8678C100.781 28.8678 103.316 28.7703 103.685 28.7085C104.026 28.6473 104.047 28.4066 104.047 28.4066C104.047 28.4066 104.091 28.0098 104.078 27.6391C104.041 27.2423 103.723 27.2789 103.723 27.2789C102.743 27.1765 101.395 27.292 101.395 27.292L101.735 26.2276C101.735 26.2276 104.432 26.0965 105.457 25.8604C105.984 25.7363 105.674 25.2199 105.674 25.2199C105.035 23.9431 104.298 24.0149 104.298 24.0149C102.177 23.9441 99.0949 24.5056 98.7589 24.6719C98.4446 24.8146 98.4788 25.0512 98.8887 25.567C99.3288 26.1106 100.069 26.0598 100.069 26.0598L99.4193 27.4025C98.8887 27.4397 98.7066 27.6049 98.7066 27.6049C98.4008 27.9309 98.8228 28.8944 98.8228 28.8944C98.8228 28.8944 97.9019 30.9574 98.5698 32.0469C99.287 33.1907 100.136 33.136 100.136 33.136C101.75 33.2535 104.401 31.5652 104.542 31.0076H104.542Z" fill="black"/>
<path d="M95.2739 22.8118C95.2739 22.8118 94.8982 22.6365 94.8032 23.0107C94.7076 23.381 94.8494 23.7758 94.8494 23.7758C95.7844 26.9439 95.9967 28.8155 95.9967 28.8155C95.9967 28.8155 96.0399 29.3661 95.9328 29.3967C95.8579 29.4535 95.7744 29.3751 95.7744 29.3751C95.6672 29.3791 94.6422 27.6617 94.6422 27.6617L94.443 27.3252C93.3149 25.5073 92.6314 24.8879 92.6314 24.8879C92.4714 24.7382 92.061 24.3268 91.5495 24.8939C91.0375 25.4646 90.6372 27.2975 90.4757 29.0205C90.3384 30.7399 90.443 31.7184 90.694 32.1313C90.9706 32.5493 91.5038 32.6919 91.9433 32.3338C92.4081 31.9771 92.3206 29.7087 92.394 28.5458C92.4644 27.3774 92.5796 27.5864 92.5796 27.5864C92.6822 27.5587 93.2143 28.6277 93.2143 28.6277C93.2143 28.6277 94.6166 31.4949 95.4972 31.9194C96.3895 32.3428 97.1072 31.6612 97.3788 31.0227C97.6549 30.3797 98.1242 28.2529 97.4256 25.8961C96.7225 23.5397 95.2734 22.8118 95.2734 22.8118H95.2739Z" fill="black"/>
<path d="M80.7037 28.8793C80.6675 28.0952 80.574 26.093 80.3547 25.1883C80.2596 24.799 80.1022 24.4439 79.7184 24.2977C79.6742 24.2811 79.6229 24.266 79.5897 24.2605C79.3498 24.2138 79.212 24.5443 79.1471 24.7086C78.9575 25.1948 78.8207 26.3562 78.7834 26.7184C78.6708 27.8154 78.5792 30.4154 78.7699 31.74C78.8498 32.2951 79.0329 32.6557 79.5947 32.7718C79.8225 32.819 80.2375 32.81 80.4201 32.6934C80.5795 32.5945 80.6906 32.4016 80.7279 32.2358C80.831 31.7742 80.7907 31.1197 80.7701 30.6274C80.7455 30.0462 80.7309 29.467 80.7042 28.8793H80.7037Z" fill="black"/>
<path d="M89.7716 24.4986C88.5594 23.8551 86.5642 23.8536 85.3299 24.0068C84.0549 24.1646 82.3484 24.5619 81.6196 25.6082C81.3415 26.0076 81.1785 26.6214 81.3063 27.1212C81.3787 27.399 81.5789 27.61 81.8696 27.7612C82.3861 28.0299 84.1093 28.0872 84.8773 28.1696C85.601 28.2469 86.9339 28.3755 87.6687 28.6819C87.6687 28.6819 88.3643 28.924 88.3598 29.3209C88.3583 29.5168 88.2114 29.673 88.0625 29.779C86.9721 30.5505 85.4733 30.7695 84.1404 30.7479C83.6888 30.7419 83.3166 30.6706 82.8579 30.4742C82.6627 30.3888 82.4093 30.2331 82.4435 29.9668C82.4983 29.5404 82.9862 29.4354 83.3739 29.4721C83.5902 29.4917 83.8729 29.5841 84.0851 29.667C84.9401 30.004 85.3299 30.2878 86.0824 30.1733C86.363 30.1306 87.3357 29.9201 87.4665 29.5198C87.4992 29.4223 87.4524 29.3168 87.3805 29.244C87.2779 29.139 86.693 28.912 86.534 28.8542C85.9612 28.6508 84.8753 28.4644 84.2717 28.4413C83.4801 28.4132 82.3912 28.5749 81.9395 29.2315C81.5326 29.8232 81.4411 31.0142 83.4609 32.0163C84.4 32.4819 85.5372 32.6889 86.5863 32.5739C87.1859 32.5051 88.9125 32.2368 89.5654 30.865C89.9164 30.1271 89.8822 29.1415 89.504 28.4413C89.2555 27.9797 88.9517 27.3653 86.6985 27.082C86.3384 27.0368 83.6878 26.7304 83.4443 26.6922C83.3096 26.6711 82.6889 26.5978 82.9067 26.3612C82.968 26.2929 83.1562 26.2427 83.2653 26.2115C84.657 25.8318 86.4234 25.875 87.8845 25.7931C88.2109 25.773 88.9533 25.7283 89.3124 25.6143C89.6544 25.5078 89.9365 25.2662 90.0155 24.8909C90.0547 24.6915 89.9592 24.5976 89.7721 24.4981L89.7716 24.4986Z" fill="black"/>
<path d="M125.926 26.2115H121.762C121.716 24.7739 121.57 23.3543 121.326 21.9584C121.284 21.7188 121.076 21.544 120.833 21.544H119.711C119.491 21.544 119.325 21.7439 119.366 21.9599C119.628 23.3528 119.784 24.7724 119.833 26.2115H115.602C115.408 26.2115 115.251 26.3687 115.251 26.5631V27.8385C115.251 28.0329 115.408 28.1901 115.602 28.1901H119.833C119.784 29.6298 119.628 31.0488 119.366 32.4418C119.325 32.6578 119.491 32.8577 119.711 32.8577H120.833C121.076 32.8577 121.284 32.6834 121.326 32.4433C121.57 31.0473 121.716 29.6278 121.762 28.1901H125.926C126.12 28.1901 126.277 28.0329 126.277 27.8385V26.5631C126.277 26.3687 126.12 26.2115 125.926 26.2115Z" fill="black"/>
<path d="M68.5809 10.7768C68.7459 10.8913 68.9772 10.8064 69.1427 10.6291C70.5711 9.09153 72.1338 7.75437 73.9138 6.54026C85.592 -1.42599 102.736 -0.268147 112.767 9.82743C116.062 13.1267 117.875 16.668 118.827 19.4513C118.896 19.6548 119.086 19.7924 119.301 19.7924H120.453C120.692 19.7924 120.862 19.5568 120.785 19.3293C119.537 15.6372 117.119 11.5845 113.607 8.28883C103.078 -1.61637 86.022 -2.71745 74.1371 5.38142C72.1927 6.69297 70.2608 8.37272 68.5633 10.2926C68.3958 10.4819 68.4527 10.6879 68.5804 10.7768H68.5809Z" fill="black"/>
</g>
<defs>
<clipPath id="clip0_421_17284">
<rect width="203" height="40" fill="white"/>
</clipPath>
</defs>
</svg>
