<svg width="32" height="32" fill="none" xmlns="http://www.w3.org/2000/svg"><path fill-rule="evenodd" clip-rule="evenodd" d="M2.667 12.4c0-4.64 4.125-8.4 9.166-8.4C16.875 4 21 7.76 21 12.4c0 4.64-4.125 8.4-9.167 8.4-1.791 0-3.416-.44-4.833-1.24-.125-.08-.333-.08-.5-.04l-2.667.92c-.5.16-.958-.28-.791-.76L3.917 17c.041-.16 0-.32-.084-.48a7.913 7.913 0 01-1.166-4.12zm2.5 0c0 .88.75 1.6 1.666 1.6.917 0 1.667-.72 1.667-1.6 0-.88-.75-1.6-1.667-1.6-.916 0-1.666.72-1.666 1.6zm6.667 1.6c-.917 0-1.667-.72-1.667-1.6 0-.88.75-1.6 1.667-1.6.916 0 1.666.72 1.666 1.6 0 .88-.75 1.6-1.666 1.6zm3.333-1.6c0 .88.75 1.6 1.666 1.6.917 0 1.667-.72 1.667-1.6 0-.88-.75-1.6-1.667-1.6-.916 0-1.666.72-1.666 1.6z" fill="#fff"/><path fill-rule="evenodd" clip-rule="evenodd" d="M14.662 23.195c4.891-.16 8.838-3.856 8.838-8.395a8.08 8.08 0 00-.004-.231c3.332.688 5.837 3.395 5.837 6.631 0 1.198-.34 2.331-.954 3.335-.069.13-.103.26-.069.389l.716 2.17c.137.388-.238.744-.647.615l-2.182-.745c-.136-.033-.307-.033-.41.032C24.63 27.644 23.3 28 21.834 28c-3.363 0-6.227-2.023-7.17-4.805z" fill="#26D997"/></svg>