<svg width="48" height="48" viewBox="0 0 48 48" fill="none" xmlns="http://www.w3.org/2000/svg">
<path fill-rule="evenodd" clip-rule="evenodd" d="M14.5 43.75C14.5 43.0596 15.0596 42.5 15.75 42.5H32.25C32.9404 42.5 33.5 43.0596 33.5 43.75C33.5 44.4404 32.9404 45 32.25 45H15.75C15.0596 45 14.5 44.4404 14.5 43.75Z" fill="#26D997"/>
<path fill-rule="evenodd" clip-rule="evenodd" d="M8.50908 14.4276C9.613 14.4276 10.5079 13.5383 10.5079 12.4414C10.5079 11.3444 9.613 10.4552 8.50908 10.4552C7.40516 10.4552 6.51025 11.3444 6.51025 12.4414C6.51025 13.5383 7.40516 14.4276 8.50908 14.4276ZM8.50908 16.9103C10.9929 16.9103 13.0064 14.9095 13.0064 12.4414C13.0064 9.97324 10.9929 7.97241 8.50908 7.97241C6.02525 7.97241 4.01171 9.97324 4.01171 12.4414C4.01171 14.9095 6.02525 16.9103 8.50908 16.9103Z" fill="#272C35"/>
<path fill-rule="evenodd" clip-rule="evenodd" d="M39.4909 14.4276C40.5948 14.4276 41.4897 13.5383 41.4897 12.4414C41.4897 11.3444 40.5948 10.4552 39.4909 10.4552C38.387 10.4552 37.4921 11.3444 37.4921 12.4414C37.4921 13.5383 38.387 14.4276 39.4909 14.4276ZM39.4909 16.9103C41.9747 16.9103 43.9883 14.9095 43.9883 12.4414C43.9883 9.97324 41.9747 7.97241 39.4909 7.97241C37.0071 7.97241 34.9936 9.97324 34.9936 12.4414C34.9936 14.9095 37.0071 16.9103 39.4909 16.9103Z" fill="#272C35"/>
<path fill-rule="evenodd" clip-rule="evenodd" d="M24 15.4207C26.4838 15.4207 28.4974 13.4199 28.4974 10.9517C28.4974 8.48358 26.4838 6.48276 24 6.48276C21.5162 6.48276 19.5026 8.48358 19.5026 10.9517C19.5026 13.4199 21.5162 15.4207 24 15.4207ZM24 17.9034C27.8637 17.9034 30.9959 14.7911 30.9959 10.9517C30.9959 7.11239 27.8637 4 24 4C20.1363 4 17.0041 7.11239 17.0041 10.9517C17.0041 14.7911 20.1363 17.9034 24 17.9034Z" fill="#272C35"/>
<path fill-rule="evenodd" clip-rule="evenodd" d="M30.3473 24.707C26.2446 23.2143 21.7554 23.2143 17.6527 24.707L15.0731 25.6456C13.8223 26.1007 13.073 27.3954 13.2937 28.7203L14.4494 35.6581C14.6721 36.9955 15.8178 37.9748 17.1596 37.9748H30.8404C32.1822 37.9748 33.3279 36.9955 33.5506 35.6581L34.7063 28.7203C34.927 27.3954 34.1777 26.1007 32.9269 25.6456L30.3473 24.707ZM16.8064 22.331C21.4561 20.6393 26.5439 20.6393 31.1936 22.331L33.7732 23.2696C36.1611 24.1385 37.5915 26.6101 37.1701 29.1396L36.0145 36.0774C35.5892 38.6305 33.402 40.5 30.8404 40.5H17.1596C14.598 40.5 12.4108 38.6305 11.9855 36.0774L10.8299 29.1396C10.4085 26.6101 11.8389 24.1385 14.2268 23.2696L16.8064 22.331Z" fill="#272C35"/>
<path fill-rule="evenodd" clip-rule="evenodd" d="M11.8888 21.6604C9.87036 20.8422 7.62269 20.8135 5.58443 21.5799L4.98701 21.8045C4.65157 21.9307 4.45115 22.2789 4.50848 22.6359L5.08511 26.2274C5.144 26.5942 5.45737 26.8636 5.825 26.8636H8.25495C8.9449 26.8636 9.50421 27.4289 9.50421 28.1263C9.50421 28.8236 8.9449 29.3889 8.25495 29.3889H5.825C4.23194 29.3889 2.87401 28.2212 2.61884 26.6319L2.0422 23.0404C1.79378 21.4932 2.66227 19.9843 4.11582 19.4378L4.71324 19.2131C7.33386 18.2278 10.2237 18.2647 12.8189 19.3167L12.9718 19.3786C13.6121 19.6382 13.9231 20.3733 13.6662 21.0205C13.4094 21.6677 12.6821 21.982 12.0417 21.7224L11.8888 21.6604Z" fill="#272C35"/>
<path fill-rule="evenodd" clip-rule="evenodd" d="M36.1112 21.6604C38.1296 20.8422 40.3773 20.8135 42.4156 21.5799L43.013 21.8045C43.3484 21.9307 43.5489 22.2789 43.4915 22.6359L42.9149 26.2274C42.856 26.5942 42.5426 26.8636 42.175 26.8636H39.7451C39.0551 26.8636 38.4958 27.4289 38.4958 28.1263C38.4958 28.8236 39.0551 29.3889 39.7451 29.3889H42.175C43.7681 29.3889 45.126 28.2212 45.3812 26.6319L45.9578 23.0404C46.2062 21.4932 45.3377 19.9843 43.8842 19.4378L43.2868 19.2131C40.6661 18.2278 37.7763 18.2647 35.1811 19.3167L35.0282 19.3786C34.3879 19.6382 34.0769 20.3733 34.3338 21.0205C34.5906 21.6677 35.3179 21.982 35.9583 21.7224L36.1112 21.6604Z" fill="#272C35"/>
</svg>
