<svg width="149" height="50" viewBox="0 0 149 50" fill="none" xmlns="http://www.w3.org/2000/svg">
    <g clip-path="url(#clip0_122_101703)">
        <path fill-rule="evenodd" clip-rule="evenodd" d="M5.1981 29.5884H7.44314C9.66422 29.5884 11.4453 30.6258 11.4453 33.317V39.7184H7.92956V33.7774C7.92956 33.2521 7.50874 32.8263 6.98964 32.8263H4.94816C4.42881 32.8263 4.00756 33.2519 4.00674 33.7774V39.7184H0.5V24.9937H4.01123V29.8034C4.01123 29.8034 4.40934 29.5884 5.1981 29.5884ZM31.0699 39.7184H27.5617V24.9937H31.0699V39.7184ZM21.1026 36.2032C21.2789 36.0245 21.3777 35.7822 21.3774 35.5297V29.5885H24.8871V35.8204C24.8871 38.1148 23.573 39.7126 21.3774 39.7126H17.9425C15.5597 39.7126 13.9464 38.3707 13.9464 35.8204V29.5885H17.456V35.5297C17.4556 35.7822 17.5545 36.0245 17.7308 36.2032C17.9071 36.3819 18.1465 36.4823 18.3959 36.4823H20.4374C20.687 36.4823 20.9262 36.3819 21.1026 36.2032ZM41.171 29.5885V35.5297C41.1718 35.7823 41.0731 36.0249 40.8967 36.2037C40.7203 36.3824 40.4807 36.4827 40.231 36.4823H38.1896C37.9401 36.4823 37.7007 36.3819 37.5245 36.2032C37.3481 36.0245 37.2493 35.7822 37.2497 35.5297V29.5885H33.7459V35.8204C33.7459 38.3707 35.3594 39.7126 37.7421 39.7126H41.1845C43.3786 39.7126 44.6927 38.1148 44.6927 35.8204V29.5885H41.171Z" fill="#04CD6A"/>
        <path fill-rule="evenodd" clip-rule="evenodd" d="M88.4863 33.9365C88.5446 34.4817 88.4069 35.5115 88.383 35.6478C88.3043 36.0295 88.1988 36.4051 88.0672 36.7715C87.8966 37.1669 87.7057 37.5532 87.4954 37.9285C87.0494 38.6687 86.5055 39.3438 85.8791 39.9352C84.1084 41.4829 81.3665 42.3658 79.0138 42.6611C77.3089 42.8654 75.5837 42.8143 73.8935 42.5097C73.3114 42.4021 72.4448 42.2068 72.4448 42.2068C72.4448 42.2068 72.4448 42.5566 72.4208 42.8035C72.389 42.9765 72.3388 43.1457 72.2711 43.3078C72.1561 43.5568 71.9226 43.7285 71.653 43.7621C71.3031 43.8482 70.936 43.8298 70.5964 43.7091C70.0591 43.4789 69.8659 42.9716 69.7717 42.384C69.6953 41.9145 69.622 41.0983 69.622 41.0983C69.622 41.0983 69.2208 40.9059 68.8842 40.7363C67.8802 40.2307 66.9221 39.6367 66.0209 38.9614C65.7845 38.7827 64.7652 37.9194 64.5407 37.7044C63.9106 37.0986 63.3433 36.4929 62.9108 35.7235C62.5756 35.1178 62.4798 34.5832 62.7343 33.944C63.0859 33.052 64.3506 32.3796 65.2143 31.998C65.8503 31.7133 67.8245 31.0621 68.6447 30.9379C69.0308 30.8818 69.6325 30.7729 69.6699 30.7486C69.6832 30.7386 69.6953 30.7268 69.7058 30.7138C69.7253 30.6865 69.7567 29.8052 69.7492 29.481C69.7418 29.1569 69.9827 27.0777 70.0605 26.6369C70.1009 26.3977 70.2791 25.4798 70.4617 25.2391C70.5799 25.077 70.7909 25.0877 70.963 25.1967C71.9029 25.7873 72.1889 27.8409 72.2592 28.8843C72.301 29.5204 72.322 30.4776 72.322 30.4776C72.322 30.4776 73.4011 30.4457 74.0642 30.4639C74.7432 30.496 75.4196 30.5718 76.0892 30.6911C76.9468 30.8289 78.6171 31.1984 79.575 31.6906C80.3652 32.0949 81.1031 32.7764 81.3426 33.4988C81.5641 34.1606 81.5312 34.618 81.1929 35.2146C80.8127 35.8886 80.0914 36.3898 79.3624 36.4262C79.144 36.4383 78.3268 36.3293 78.0753 36.1233C77.9835 36.0424 77.9735 35.9017 78.0528 35.8083C78.2579 35.6769 78.4698 35.5566 78.6874 35.4479C78.7957 35.391 78.8964 35.3203 78.9868 35.2373C79.1739 35.0693 79.343 34.886 79.325 34.671C79.2981 34.3908 79.0063 34.2166 78.7264 34.1077C77.4182 33.5821 74.8066 33.1444 73.5433 33.0687C73.0494 33.0399 72.3459 33.0142 72.3459 33.0142L72.4956 40.0684C72.4956 40.0684 73.0764 40.1805 73.5344 40.2547C73.7977 40.2956 74.9113 40.397 75.2062 40.4062C77.4587 40.4667 79.9731 40.2622 82.04 39.2748C82.947 38.8417 83.7806 38.3041 84.4107 37.5757C85.2674 36.5636 85.6826 35.2437 85.5617 33.9168C85.436 32.4114 84.3883 30.6244 83.5531 29.5386C81.3455 26.6611 77.5665 24.3016 74.2303 22.916C70.8314 21.5015 67.4713 20.6882 63.8627 20.5519C62.9333 20.5171 60.9053 20.564 59.88 20.8548C59.8167 20.8721 59.7532 20.8911 59.6914 20.9096H59.6913C59.6071 20.9347 59.5255 20.9591 59.4505 20.9774C59.3366 21.0063 59.2276 21.0522 59.1272 21.1138C59.1092 21.1293 59.0922 21.146 59.0764 21.1637C59.0764 21.1637 59.1392 21.1986 59.1991 21.2259C59.2634 21.2535 59.4487 21.2748 59.6382 21.2967C59.7701 21.312 59.9043 21.3274 60.0013 21.3455C60.2089 21.3733 60.3964 21.4854 60.5206 21.656C60.6148 21.7688 60.6148 21.9338 60.5206 22.0466C60.2886 22.3329 59.4146 22.2844 59.024 22.2223C58.6333 22.1603 58.1259 22.0345 58.0346 21.6817C57.9283 21.2667 58.1229 20.8593 58.334 20.4838C58.7575 19.7265 59.3637 19.3389 60.2513 19.0935C61.5725 18.7377 62.9269 18.5224 64.2923 18.4514C66.9864 18.3484 69.5307 18.8255 72.144 19.6266C73.8131 20.1511 75.4441 20.7933 77.0246 21.5484C78.2414 22.1586 79.4254 22.8335 80.5718 23.5702C80.8592 23.7626 82.5369 25.0089 82.7973 25.2285C83.3421 25.6829 84.053 26.3249 84.5679 26.8414C85.5647 27.8409 86.804 29.372 87.4117 30.5881C87.4688 30.6997 87.5199 30.8103 87.5718 30.9228H87.5719C87.6558 31.1047 87.7423 31.2918 87.8606 31.4967C88.0113 31.8234 88.1402 32.1598 88.2468 32.5038L88.254 32.5354C88.2984 32.7303 88.3581 32.9921 88.368 33.0036C88.4265 33.3122 88.4659 33.6243 88.4863 33.938V33.9365ZM89.1538 28.7739C89.2371 28.5997 89.3331 28.4322 89.4411 28.2726H89.4546C89.4666 28.2589 89.5309 28.2922 89.5803 28.3316C89.7503 28.3938 89.9256 28.4394 90.1042 28.468C90.2096 28.4751 90.3182 28.4933 90.4279 28.5117H90.428H90.4281C90.5284 28.5286 90.6297 28.5456 90.7298 28.5542C91.4003 28.6179 92.3148 28.3967 92.9134 28.1635C94.2605 27.6305 95.3081 26.8627 96.3558 25.7722C96.9709 25.1392 97.5113 24.0988 97.3122 23.1508C97.22 22.6998 96.9716 22.297 96.6118 22.0149C96.3164 21.7856 95.976 21.6224 95.6134 21.5364C95.5246 21.5274 95.4372 21.5077 95.353 21.4773C95.295 21.4305 95.2445 21.3748 95.2034 21.3122C94.9181 20.9912 94.5579 20.7476 94.1557 20.6035C93.123 20.2401 91.7446 20.5141 90.8046 20.9155C89.8209 21.3294 88.9323 21.9445 88.1944 22.7221C87.4999 23.4703 86.9642 24.4138 87.0211 25.4391C87.0505 25.8335 87.1558 26.2182 87.3308 26.5718C87.3793 26.6603 87.4428 26.7509 87.5073 26.8427C87.624 27.0089 87.7431 27.1789 87.7798 27.3458C87.7973 27.5249 87.8003 27.7053 87.7888 27.8848C87.8007 28.313 87.9819 28.7183 88.2917 29.0102C88.5132 29.207 88.7078 29.1994 88.9368 29.0283C89.0232 28.9569 89.0967 28.8708 89.1538 28.7739ZM89.1284 24.9966C88.8904 25.3329 88.591 25.7766 88.591 25.7766L88.5866 25.7796C88.5866 25.7796 88.5252 25.6463 88.4848 25.5479C88.2124 24.8467 88.8246 24.0622 89.3828 23.5791C89.721 23.2854 90.3976 22.8295 90.8585 22.7386C91.0531 22.6992 91.3959 22.6629 91.3959 22.6629C91.3959 22.6629 91.1758 22.8462 90.9903 23.0052C90.3072 23.6062 89.6836 24.2732 89.1284 24.9966ZM99.3957 33.9002L99.2865 33.8849V33.8865L95.5014 33.4321C95.465 33.4293 95.4289 33.4233 95.3936 33.414L95.3742 33.4102L95.3564 33.407L95.3038 33.3982C95.0491 33.3559 94.4971 33.2645 94.7305 33.0006C94.8659 32.9079 95.0189 32.8444 95.1796 32.8143C96.4905 32.4535 98.0687 32.3991 99.5412 32.3484H99.5413H99.5414L99.5415 32.3483H99.5416H99.5417H99.5418H99.5419C99.9973 32.3327 100.443 32.3172 100.867 32.2933L100.878 32.2927C101.291 32.2666 102.185 32.2103 102.623 32.0707C103.056 31.9556 103.39 31.6049 103.488 31.162C103.536 30.9137 103.419 30.7956 103.188 30.6713C101.696 29.8763 99.243 29.8733 97.7254 30.0656C96.1539 30.261 94.0586 30.7562 93.1605 32.0601C92.8193 32.5584 92.6263 33.3231 92.7758 33.9456C92.8843 34.2991 93.1363 34.5894 93.4689 34.7437C93.8012 34.8764 94.1495 34.964 94.5046 35.0041C94.7832 35.0462 95.7837 35.1327 96.6302 35.2059C96.8202 35.2223 97.0025 35.2381 97.1672 35.2526C98.0277 35.3237 99.7041 35.5099 100.602 35.8901C100.602 35.8901 101.452 36.193 101.452 36.6867C101.426 36.9251 101.29 37.1368 101.086 37.2577C99.7445 38.2223 97.908 38.4964 96.2617 38.4692C95.7178 38.4691 95.1802 38.3526 94.6842 38.1269C94.4432 38.0209 94.1289 37.7665 94.1738 37.4954C94.2711 36.9668 94.8413 36.832 95.3188 36.879C95.6191 36.9221 95.9127 37.0035 96.1928 37.1213C96.4141 37.2095 96.6101 37.2948 96.7902 37.3734C97.4668 37.6679 97.9199 37.8653 98.6504 37.7529C98.9946 37.6953 100.192 37.4379 100.352 36.9381C100.383 36.8127 100.343 36.6804 100.247 36.5943C100.114 36.464 99.3943 36.1809 99.1997 36.1096C98.2958 35.8263 97.3618 35.6534 96.4173 35.5947C95.443 35.5599 94.1469 35.7447 93.5481 36.5791C93.1795 37.1107 93.1497 37.8106 93.4719 38.3722C93.8924 39.1264 94.7305 39.7095 95.4175 40.0503C96.6123 40.6333 97.9423 40.8732 99.2625 40.7438C99.967 40.6797 100.655 40.4911 101.295 40.1865C101.924 39.8806 102.612 39.3036 102.926 38.6145C103.345 37.6466 103.318 36.5403 102.852 35.5947C102.603 35.0718 102.172 34.6607 101.641 34.4408C101.02 34.1621 100.214 34.0137 99.3957 33.9002ZM91.6877 26.6187C92.5576 26.5547 93.4026 26.2961 94.1617 25.8614C94.91 25.4359 96.0236 24.603 95.9083 23.6246C95.875 23.327 95.684 23.0715 95.4099 22.9583C95.0731 22.8068 94.8996 22.8341 94.47 22.9583C94.2067 23.0278 93.9546 23.1355 93.7217 23.2779C92.6772 23.9426 91.7466 24.7747 90.9663 25.7418C90.9128 25.8147 90.8583 25.8908 90.8047 25.9656C90.7079 26.1004 90.6142 26.2311 90.5352 26.3324C90.4589 26.4279 90.3991 26.5172 90.4065 26.5414C90.4334 26.6384 91.342 26.6292 91.6862 26.6065L91.6877 26.6187ZM90.652 30.3743C90.7059 30.3857 90.7591 30.4014 90.8106 30.4213C91.2821 30.603 91.4767 31.0453 91.5933 31.5313C91.8628 32.6581 91.978 35.1539 92.0229 36.1307C92.0384 36.4929 92.0507 36.8526 92.0629 37.211C92.0754 37.578 92.0878 37.9438 92.1038 38.3099L92.1102 38.459C92.1359 39.0457 92.1684 39.7854 92.0514 40.3136C92.0002 40.5451 91.8651 40.7488 91.6727 40.8845C91.4482 41.0359 90.9378 41.0359 90.6579 40.9814C89.9665 40.8299 89.742 40.3878 89.6432 39.6957C89.4082 38.0449 89.522 34.8056 89.6597 33.438C89.706 32.9837 89.8737 31.5389 90.1087 30.9332C90.188 30.7287 90.3571 30.3167 90.6534 30.3743H90.652ZM69.6191 33.1307V33.1292V33.1307ZM69.6191 33.1307C69.6116 33.1312 68.5883 33.2052 67.8829 33.2821C66.9849 33.3806 65.2877 33.6759 64.3103 34.0303C64.0185 34.1363 63.4228 34.3877 63.3704 34.692C63.318 34.9965 63.5112 35.2555 63.7267 35.5114C63.8508 35.6629 64.5573 36.3473 64.7549 36.5139C65.9064 37.4363 67.1661 38.211 68.5056 38.8204C68.9306 38.9991 69.6341 39.2535 69.6341 39.2535C69.6341 39.2535 69.5817 37.2257 69.5922 35.2266C69.5922 34.1901 69.6179 33.1752 69.6191 33.1307ZM117.769 32.8309C117.769 32.8309 121.085 32.6794 122.348 32.3765L122.338 32.3795C122.985 32.2251 122.605 31.5815 122.605 31.5815C121.81 29.9898 120.912 30.0807 120.912 30.0807C118.303 29.9898 114.512 30.691 114.098 30.8985C113.711 31.0757 113.753 31.371 114.258 32.0146C114.8 32.684 115.709 32.6204 115.709 32.6204L114.91 34.2938C114.258 34.3408 114.034 34.5467 114.034 34.5467C113.657 34.9526 114.177 36.1535 114.177 36.1535C114.177 36.1535 113.044 38.719 113.866 40.082C114.743 41.5131 115.791 41.445 115.791 41.445C117.769 41.5918 121.037 39.4883 121.211 38.7932C121.356 38.2313 120.846 37.6165 120.397 37.5029C119.971 37.4136 116.705 38.033 116.312 38.139C115.894 38.254 116.081 37.8542 116.081 37.8542L116.585 36.1263C116.585 36.1263 119.708 36.0036 120.158 35.9279C120.581 35.8537 120.607 35.5508 120.607 35.5508C120.639 35.2334 120.652 34.9142 120.646 34.5952C120.599 34.0939 120.208 34.1409 120.208 34.1409C119.004 34.0121 117.346 34.156 117.346 34.156L117.769 32.8309ZM112.535 38.8099C112.2 39.6051 111.317 40.4546 110.22 39.9277C109.123 39.4006 107.412 35.822 107.412 35.822C107.412 35.822 106.756 34.4893 106.63 34.5241C106.63 34.5241 106.489 34.2652 106.403 35.7206C106.383 36.0601 106.373 36.474 106.362 36.9147V36.9149C106.328 38.3632 106.286 40.1009 105.848 40.441C105.307 40.8954 104.651 40.7106 104.312 40.1896C104.002 39.6747 103.874 38.4556 104.043 36.3127C104.24 34.1653 104.734 31.8814 105.363 31.1636C105.981 30.4578 106.48 30.9526 106.683 31.1536L106.694 31.1636C106.694 31.1636 107.534 31.9344 108.922 34.1924L109.168 34.6119C109.168 34.6119 110.428 36.7518 110.559 36.7473C110.559 36.7473 110.662 36.8458 110.755 36.7746C110.887 36.7367 110.833 36.0507 110.833 36.0507C110.833 36.0507 110.572 33.7185 109.422 29.7704C109.321 29.4628 109.302 29.1338 109.366 28.8162C109.482 28.3498 109.945 28.5679 109.945 28.5679C109.945 28.5679 111.727 29.4765 112.592 32.4115C113.457 35.3465 112.873 37.9997 112.535 38.8009V38.8099ZM125.569 40.7772C128.612 41.4845 130.902 38.4859 131.713 37.0517V37.0457C132.192 36.1855 132.449 35.0376 132.449 33.9578C132.447 32.7265 132.113 31.5846 131.388 31.0607C129.231 29.5446 125.748 34.3499 124.216 36.7337C123.987 35.5191 124.799 33.9805 124.799 33.9805C124.799 33.9805 126.107 31.6937 126.283 31.2393C126.46 30.7851 126.543 29.8158 126.341 29.7249C126.138 29.634 125.788 29.9369 125.788 29.9369C122.867 32.5887 122.459 35.5312 122.459 35.5312C122.183 37.1229 122.506 38.2345 122.979 39.0144C121.355 42.5143 120.561 45.5673 120.773 47.3726C120.969 48.7432 121.944 49.7366 122.533 49.9471C123.129 50.1985 123.235 49.4731 123.235 49.4731C123.719 45.7385 124.562 43.2428 125.569 40.7772ZM131.085 33.2792C131.085 33.2792 130.963 32.3312 130.049 33.3746C128.732 34.8116 127.605 36.4163 126.698 38.1481C127.896 38.0118 129.055 37.3531 129.404 37.0168C129.973 36.5065 131.298 35.1208 131.085 33.2792ZM142.906 33.0628H148.484H148.488C148.608 33.0623 148.724 33.1107 148.808 33.1969C148.894 33.2832 148.941 33.4002 148.939 33.5217V34.6954C148.939 34.9463 148.738 35.1497 148.489 35.1497H142.986V35.9433C142.994 37.5194 142.916 39.0947 142.753 40.6622C142.731 40.8965 142.536 41.0752 142.304 41.0741H141.107C140.988 41.074 140.875 41.0228 140.796 40.9333C140.714 40.8427 140.676 40.7216 140.687 40.6002C140.855 39.0537 140.936 37.4989 140.929 35.9433V35.1497H135.485C135.237 35.1497 135.036 34.9463 135.036 34.6954V33.5217C135.036 33.2708 135.237 33.0673 135.485 33.0673H140.852C140.743 31.1853 140.505 29.3131 140.142 27.4639C140.119 27.3512 140.148 27.2343 140.221 27.1459C140.293 27.0583 140.399 27.0073 140.511 27.0066H141.797C141.997 27.0073 142.168 27.1515 142.205 27.3504C142.56 29.2373 142.794 31.1454 142.906 33.0628Z" fill="#121D4D"/>
        <path d="M141.484 24.2396C136.12 10.8954 123.905 1.64444 109.741 0.197305C95.5753 -1.24983 81.78 5.34391 73.8877 17.3337C73.8085 17.4516 73.7886 17.6001 73.8339 17.735C73.8803 17.8698 73.985 17.9757 74.1182 18.0228L75.118 18.3635C75.176 18.3823 75.2367 18.392 75.2976 18.3923C75.4831 18.3929 75.6566 18.2997 75.7601 18.144C82.5331 8.04155 93.8149 1.99345 105.879 1.99705C120.511 2.00006 133.72 10.8607 139.42 24.4955C139.502 24.6922 139.693 24.8199 139.903 24.8196H141.101C141.24 24.8192 141.369 24.7493 141.446 24.6331C141.523 24.517 141.539 24.3695 141.488 24.2396H141.484Z" fill="url(#paint0_radial_122_101703)"/>
    </g>
    <defs>
        <radialGradient id="paint0_radial_122_101703" cx="0" cy="0" r="1" gradientUnits="userSpaceOnUse" gradientTransform="translate(135.396 30.2083) scale(73.4375 69.4746)">
            <stop offset="0.09" stop-color="#121D4D"/>
            <stop offset="0.850062" stop-color="#00DCFF" stop-opacity="0"/>
        </radialGradient>
        <clipPath id="clip0_122_101703">
            <rect width="148" height="50" fill="white" transform="translate(0.5)"/>
        </clipPath>
    </defs>
</svg>
