<svg xmlns="http://www.w3.org/2000/svg" xmlns:xlink="http://www.w3.org/1999/xlink" width="84" height="100" viewBox="0 0 84 100">
    <defs>
        <path id="a" d="M0 99.602h84V.236H0z"/>
    </defs>
    <g fill="none" fill-rule="evenodd">
        <path fill="#26D997" d="M84 52.755c0 23.104-18.804 41.833-42 41.833S0 75.858 0 52.755c0-23.103 18.804-41.832 42-41.832s42 18.729 42 41.832"/>
        <g transform="translate(0 .162)">
            <path stroke="#000" stroke-width="1.998" d="M34.442 68.574V72.9s0 4.167 6.918 4.167 6.918-4.167 6.918-4.167v-4.326"/>
            <path stroke="#000" stroke-linecap="round" stroke-width="1.998" d="M21.058 91.172v6.73M62.062 91.252v6.73M16.484 40.532s-6.81 2.884 0 6.73M67.457 47.262s6.81-2.885 0-6.73M32.692 33.562a3.285 3.285 0 0 1 3.291 3.279 3.285 3.285 0 0 1-3.291 3.278 3.285 3.285 0 0 1-3.292-3.278 3.285 3.285 0 0 1 3.292-3.279zM49.308 33.562a3.285 3.285 0 0 1 3.292 3.279 3.285 3.285 0 0 1-3.292 3.278 3.285 3.285 0 0 1-3.291-3.278 3.285 3.285 0 0 1 3.291-3.279zM42.108 1.232a4.143 4.143 0 0 1 4.151 4.134 4.143 4.143 0 0 1-4.15 4.135 4.143 4.143 0 0 1-4.151-4.135 4.143 4.143 0 0 1 4.15-4.134z"/>
            <path fill="#000" d="M42.214 49.14a8.595 8.595 0 0 1-2.145-.298l.487-1.854c1.629.423 2.71.197 2.957-.098.022-.028.075-.091.052-.275-.06-.463-.57-1.32-1.814-2.214l-.327-.234-.625-4.01 1.902-.295.503 3.23c1.312 1.025 2.133 2.205 2.27 3.28.084.662-.082 1.264-.481 1.742-.564.676-1.546 1.026-2.779 1.026"/>
            <path stroke="#000" stroke-linecap="round" stroke-width="1.998" d="M59.084 14.94H24.916c-4.261 0-7.716 3.441-7.716 7.686v38.413c0 4.245 3.455 7.686 7.716 7.686h34.168c4.261 0 7.716-3.441 7.716-7.686V22.626c0-4.245-3.455-7.686-7.716-7.686zM34.442 74.701H16.917c-4.262 0-7.717 3.441-7.717 7.686v8.533c0 4.245 3.455 7.686 7.717 7.686h50.166c4.262 0 7.717-3.441 7.717-7.686v-8.533c0-4.245-3.455-7.686-7.717-7.686H47.625"/>
            <mask id="b" fill="#fff">
                <use xlink:href="#a"/>
            </mask>
            <path fill="#000" d="M41 14.94h2.2V8.765H41z" mask="url(#b)"/>
            <path stroke="#000" stroke-linecap="round" stroke-width="1.599" d="M35.525 54.08h11.75s1.259 4.988-5.875 4.988-5.875-4.534-5.875-4.534" mask="url(#b)"/>
        </g>
    </g>
</svg>
