<svg width="64" height="64" viewBox="0 0 64 64" fill="none" xmlns="http://www.w3.org/2000/svg">
<path fill-rule="evenodd" clip-rule="evenodd" d="M32 15.3602C27.8724 15.3602 23.9988 16.3581 21.8008 18.0848C21.077 18.6534 20.0292 18.5276 19.4606 17.8038C18.892 17.0799 19.0178 16.0322 19.7416 15.4636C22.7724 13.0827 27.5132 12.0269 32 12.0269C36.4868 12.0269 41.2276 13.0827 44.2583 15.4636C44.9821 16.0322 45.108 17.0799 44.5393 17.8038C43.9707 18.5276 42.923 18.6534 42.1991 18.0848C40.0011 16.3581 36.1276 15.3602 32 15.3602Z" fill="#1CE783"/>
<path fill-rule="evenodd" clip-rule="evenodd" d="M12.3337 24V19.2216C12.6779 18.4818 13.8922 16.2186 16.6808 14.0877C19.6146 11.8458 24.3982 9.66671 32.0003 9.66671C39.6024 9.66671 44.386 11.8458 47.3199 14.0877C50.1085 16.2186 51.3227 18.4818 51.667 19.2216V24C51.667 24.9205 52.4132 25.6667 53.3337 25.6667C54.2541 25.6667 55.0003 24.9205 55.0003 24V19.1174C55.0003 18.7782 54.9451 18.3918 54.771 17.996C54.359 17.0593 52.8697 14.1335 49.3438 11.4391C45.7954 8.7276 40.2909 6.33337 32.0003 6.33337C23.7098 6.33337 18.2052 8.7276 14.6569 11.4391C11.1309 14.1335 9.64164 17.0593 9.22964 17.996C9.05556 18.3918 9.00033 18.7782 9.00033 19.1174V24C9.00033 24.9205 9.74652 25.6667 10.667 25.6667C11.5875 25.6667 12.3337 24.9205 12.3337 24ZM54.6961 41C54.9137 39.8461 55.8369 38.9414 57.0003 38.7512V34.0477L56.7006 34.0477C55.5899 34.0477 54.6468 33.3302 54.3094 32.3334H52.3337V41H54.6961ZM57.9384 42.0126C57.7071 43.3313 56.5561 44.3334 55.1712 44.3334H55.0003V48.9563L44.6623 55H40.3153C40.1495 56.5 38.8778 57.6667 37.3337 57.6667H29.3337C27.6768 57.6667 26.3337 56.3236 26.3337 54.6667V52C26.3337 50.3432 27.6768 49 29.3337 49H37.3337C38.8778 49 40.1495 50.1667 40.3153 51.6667H43.7594L51.667 47.0438V44.3151C50.167 44.1492 49.0003 42.8776 49.0003 41.3334L49.0003 32C49.0003 30.3432 50.3435 29 52.0003 29L54.9863 29C56.097 29 57.0402 29.7175 57.3775 30.7143H57.5241C59.0758 30.7143 60.3337 31.9722 60.3337 33.5238V39.2045C60.3337 40.6224 59.2958 41.7978 57.9384 42.0126ZM9.30452 32.3334C9.08692 33.4873 8.16373 34.392 7.00033 34.5822V39.2858H7.30005C8.41075 39.2858 9.35388 40.0033 9.69123 41H11.667V32.3334H9.30452ZM6.06229 31.3208C6.2936 30.0021 7.4445 29 8.82946 29H12.0003C13.6572 29 15.0003 30.3432 15.0003 32V41.3334C15.0003 42.9902 13.6572 44.3334 12.0003 44.3334H9.01433C7.90362 44.3334 6.96049 43.6159 6.62315 42.6191H6.47652C4.92486 42.6191 3.66699 41.3612 3.66699 39.8096V34.1289C3.66699 32.711 4.70485 31.5356 6.06229 31.3208ZM29.667 54.3334V52.3334H37.0003V54.3334H29.667Z" fill="#272C35"/>
</svg>
