<svg width="24" height="24" viewBox="0 0 24 24" fill="none" xmlns="http://www.w3.org/2000/svg">
<path fill-rule="evenodd" clip-rule="evenodd" d="M3 7C3 5.89543 3.89543 5 5 5H10.125C10.6773 5 11.125 5.44772 11.125 6C11.125 6.55228 10.6773 7 10.125 7H5V19H17V13.875C17 13.3227 17.4477 12.875 18 12.875C18.5523 12.875 19 13.3227 19 13.875V19C19 20.1046 18.1046 21 17 21H5C3.89543 21 3 20.1046 3 19V7Z" fill="#176EE1"/>
<path fill-rule="evenodd" clip-rule="evenodd" d="M15 4C15 3.44772 15.4477 3 16 3H20C20.5523 3 21 3.44772 21 4V8C21 8.55228 20.5523 9 20 9C19.4477 9 19 8.55228 19 8V6.41421L12.7071 12.7071C12.3166 13.0976 11.6834 13.0976 11.2929 12.7071C10.9024 12.3166 10.9024 11.6834 11.2929 11.2929L17.5858 5H16C15.4477 5 15 4.55228 15 4Z" fill="#176EE1"/>
</svg>
