<svg width="48" height="45" viewBox="0 0 48 45" fill="none" xmlns="http://www.w3.org/2000/svg">
<path fill-rule="evenodd" clip-rule="evenodd" d="M24 0L31.416 14.8107L48 17.2003L36 28.7224L38.832 45L24 37.3107L9.168 45L12 28.7224L0 17.2003L16.584 14.8107L24 0Z" fill="#26D997"/>
<path d="M24 2.2335L30.5218 15.2585C30.6685 15.5513 30.9492 15.7538 31.2734 15.8005L45.8296 17.8979L35.3074 28.0011C35.0675 28.2315 34.9578 28.5661 35.0148 28.8938L37.501 43.1836L24.4603 36.4229C24.1717 36.2733 23.8283 36.2733 23.5397 36.4229L10.499 43.1836L12.9852 28.8938C13.0422 28.5661 12.9325 28.2315 12.6926 28.0011L2.17038 17.8979L16.7266 15.8005C17.0508 15.7538 17.3315 15.5513 17.4782 15.2585L24 2.2335Z" stroke="#040405" stroke-opacity="0.5" stroke-width="2" stroke-linecap="round" stroke-linejoin="round"/>
</svg>
